<?xml version="1.0" encoding="UTF-8"?>
<svg width="16" height="16" version="1.1" viewBox="0 0 16 16" xmlns="http://www.w3.org/2000/svg">
 <path d="m3.8073 10.277c-0.5804-0.23223-1.0551-0.71594-1.2763-1.3006-0.22122-0.58468-0.18563-1.2614 0.09568-1.8197 0.28131-0.55826 0.80408-0.98953 1.4056-1.1596 0.60155-0.17008 1.2727-0.076392 1.8047 0.25192 0.3558 0.21958 0.64537 0.53512 0.87621 0.88371 0.23084 0.34859 0.40587 0.73088 0.56645 1.1169 0.32117 0.77205 0.60157 1.5879 1.1652 2.2056 0.48188 0.52811 1.1566 0.87624 1.8663 0.9629 0.70965 0.08666 1.4483-0.08886 2.0431-0.48548 0.59481-0.39662 1.0408-1.0111 1.2336-1.6995s0.13083-1.4452-0.17143-2.093" fill="none" stroke="#fc9c9c" stroke-linecap="round" stroke-opacity=".99608" stroke-width="2.169" style="paint-order:normal"/>
</svg>
